<?xml version="1.0" encoding="UTF-8"?><svg id="b" xmlns="http://www.w3.org/2000/svg" viewBox="0 0 686.4 686.4"><defs><style>.d{fill:#d39c8e;}.e{fill:#fff;}.f{fill:#e79957;}.g{fill:#49b699;}.h{fill:#e89957;}.i{fill:#fffffe;}.j{fill:#5f9399;}.k{fill:#fefefe;}</style></defs><g id="c"><g><path class="e" d="M0,0c228.8,0,457.6,0,686.4,0,0,228.8,0,457.6,0,686.4-228.8,0-457.6,0-686.4,0C0,457.6,0,228.8,0,0Z"/><path class="f" d="M399.82,582.82c.9,4.71,2.4,9.26,3.67,13.88,6.97,25.49,13.99,50.96,20.99,76.45,.14,.52,.47,1.02,.16,1.62-.88-.23-1.16-1.05-1.59-1.68-16.9-24.56-33.77-49.13-50.66-73.7-2.26-3.29-4.57-6.55-6.86-9.82-2.08-1.29-2.85-3.68-4.45-5.38-3.86-6.18-8.15-12.06-12.26-18.05-5.98-8.7-11.94-17.41-17.96-26.08-3.78-5.45-7.49-10.96-11.31-16.39-15.69-22.76-31.31-45.56-46.99-68.33-.88-1.28-1.94-2.02-3.48-2.22-3.01-.39-6.04-.51-9.06-.74-8.11-.61-16.22-1.23-24.33-1.82-7.48-.54-14.95-1.08-22.43-1.62-7.4-.54-14.8-.99-22.18-1.71-.96-.09-1.91-.16-2.87-.12-5.35-.21-10.67-.72-16-1.13-7.64-.59-15.28-1.09-22.91-1.7-7.95-.63-15.92-1.12-23.86-1.8-4.37-.37-8.76-.38-13.1-1.09-2.3-.13-4.7,.37-6.82-1.02-4.62-.37-9.23-.76-13.85-1.11-8.28-.63-16.57-1.26-24.85-1.86-5.34-.39-10.68-.71-16.02-1.11-7.65-.57-15.29-1.18-22.94-1.75-4.94-.37-9.88-.72-14.82-1.06-3.11-.22-6.22-.4-9.33-.62-.63-.04-1.29-.03-2-.65,4.48-1.21,8.82-2.39,13.16-3.56,25.67-6.93,51.35-13.85,77.02-20.79,.69-.19,1.35-.48,2.02-.72,1.71-1.54,4.03-1.33,6.01-2.11,32.39-8.85,64.82-17.56,97.25-26.31,33.5-9.03,66.99-18.13,100.51-27.12,10.89-2.92,21.77-5.88,32.65-8.84,3.2-.87,3.3-.76,4.67,2.31,8.24,30.25,16.65,60.45,24.93,90.69,9.03,32.94,18.13,65.85,27.17,98.78,3.87,14.11,7.64,28.26,11.74,42.31,.13,2.02,1.38,3.86,1.01,5.97Z"/><path class="d" d="M574.67,276.97c1.49,.09,2.8-.59,4.18-.96,19.47-5.31,38.93-10.64,58.39-15.98,15.31-4.2,30.61-8.41,45.91-12.61,.45-.12,.92-.17,1.56-.28-.24,1.08-1.11,1.28-1.68,1.66-12.25,8.26-24.52,16.49-36.79,24.73-19.56,13.14-39.11,26.28-58.66,39.43-1.85,1.25-3.64,2.59-5.45,3.88-1.51,1.82-3.8,2.62-5.5,4.2-14.32,9.49-28.44,19.27-42.78,28.72-5.47,3.61-10.8,7.42-16.26,11.04-14.77,9.8-29.44,19.74-44.12,29.67-8.73,5.9-17.53,11.71-26.3,17.55-.53,.35-1.06,.71-1.73,.77-1.8-.28-3.19-1.44-4.68-2.32-16.96-10.07-33.97-20.03-50.96-30.06-17.39-10.27-34.8-20.52-52.2-30.76-.76-.45-1.58-.77-2.33-1.23-.71-.64-1.88-1.07-1.12-2.4,5.67-1.96,11.53-3.23,17.32-4.77,32.82-8.76,65.58-17.72,98.36-26.64,31.93-8.69,63.85-17.4,95.76-26.15,7.71-2.11,15.46-4.05,23.09-6.43,2.01-.27,3.91-1.2,6-1.06Z"/><path class="h" d="M239.98,112.19c.69-4.44,.56-8.93,.86-13.4,.54-8.05,.78-16.13,1.18-24.19,.64-12.69,1.29-25.39,1.96-38.08,.45-8.61,.95-17.22,1.43-25.93,.61,.67,.7,1.45,.9,2.2,7.63,28.88,15.27,57.76,22.92,86.63,.22,.85,.52,1.68,.77,2.51,1.69,1.51,1.16,3.85,2.13,5.63,7.41,28.56,15.04,57.05,22.57,85.58,4.63,17.55,9.27,35.09,13.91,52.64,8,30.3,15.96,60.62,24.04,90.9,.33,1.24,.66,2.47,.91,3.73-.28,2.21-.77,2.48-2.89,1.16-3.73-2.33-7.53-4.54-11.27-6.83-15.94-9.76-31.93-19.43-47.91-29.14-12.84-7.79-25.63-15.66-38.51-23.38-.88-.53-1.85-1-2.15-2.14-.1-3.76,.21-7.51,.41-11.25,.46-8.45,.81-16.92,1.34-25.36,.48-7.73,.63-15.48,1.29-23.21,.3-3.5,.26-7.02,.48-10.53,.23-3.82,.49-7.65,.65-11.49,.14-4.94,.34-9.88,.74-14.81,.28-3.5,.36-7.01,.52-10.51,.35-7.73,.77-15.45,1.15-23.18,.5-10.19,1.09-20.38,1.52-30.58,.72-2.27-.24-4.8,1.07-6.98Z"/><path class="g" d="M188.67,446.52c2.47,.14,4.94,.23,7.41,.42,9.48,.72,18.95,1.49,28.43,2.21,5.42,.41,10.84,.72,16.26,1.13,7.49,.56,14.98,1.16,22.46,1.75,2.15,.17,4.31,.22,6.46,.43,1.35,.13,2.14,.64,2.88,1.72,4.9,7.21,9.86,14.38,14.8,21.56,10.38,15.09,20.76,30.18,31.13,45.27,.59,.85,1.1,1.76,1.64,2.64-.4,1.18-1.55,1.31-2.47,1.68-18.62,7.49-37.25,14.96-55.64,23-10.04,4.39-19.68,9.6-28.99,15.4-2.26,.87-4.08,2.62-6.5,3.15-3.01,1.31-5.71,3.18-8.48,4.9-8.14,5.05-16.24,10.17-24.35,15.27-.6,.37-1.16,.82-2.15,1.05-.14-2.08-.33-4.02-.38-5.97-.1-4.07-.09-8.15-.16-12.22-.15-8.06-.33-16.13-.5-24.19-1.27-2.49-.53-5.15-.67-7.73-.75-8.77-.18-17.57-.63-26.32-.43-8.55,.05-17.1-.48-25.61-.5-8.07-.14-16.12-.42-24.18-.14-4.06-.6-8.12-.44-12.2,.04-1.1-.13-2.27,.79-3.15Z"/><path class="g" d="M235.58,198.07c-.16,4.15-.14,8.31-.51,12.44-.37,4.06-.39,8.14-.67,12.2-.56,8.13-.79,16.27-1.19,24.41-.47,9.57-.96,19.14-1.48,28.71-.09,1.59-.35,3.18-.3,4.78-.12,.96-.95,1.21-1.62,1.61-20.06,11.78-40.15,23.53-60.21,35.31-3.45,2.02-6.89,4.05-10.37,6.03-2.44,1.39-2.99,1.26-4.46-1.03-.47-.74-.92-1.5-1.31-2.29-6.83-13.75-14.04-27.31-20.8-41.1-5.84-11.93-12.22-23.56-18.94-35.01-.33-.55-.69-1.07-1.1-1.57-.88-2.25-2.57-4.09-3.2-6.47-.05-.84-.57-1.48-.98-2.16-5.91-9.77-11.83-19.54-17.74-29.32-.32-.54-.76-1.02-.85-1.9,2.01-.5,4.03-.15,6.03,0,4.93,.38,9.85,.88,14.78,1.3,5.33,.46,10.65,.88,15.98,1.33,2.41-1.37,4.87,0,7.31-.12,6.28,.51,12.59,.44,18.88,.69,3.96,.15,7.97-.09,11.94-.41,18.23-1.46,36.36-3.78,54.49-6.08,4.2-.53,8.39-1.1,12.58-1.69,1.26-.18,2.54-.46,3.71,.33Z"/><path class="g" d="M445.44,408.5c19.27-12.94,38.54-25.88,57.81-38.82,4.17-2.8,8.35-5.6,12.53-8.39,.53-.35,1-.81,1.65-.94,1.2,.59,1.19,1.83,1.45,2.88,3.68,14.76,8.04,29.31,13.04,43.67,4.11,11.79,8.68,23.4,14.26,34.58,1.64,3.29,3.47,6.49,5.28,9.69,.98,2.36,2.95,4.21,3.5,6.8,.47,1.47,1.47,2.65,2.29,3.91,6.14,9.48,12.99,18.43,20.48,26.88,.89,1,1.73,2.04,2.46,2.9-.08,.62-.35,.67-.57,.65-9.01-.58-18.03-1.01-27.06-1.43-5.91-.28-11.82-.45-17.73-.71-2.53,1.2-5.2,.5-7.81,.59-11.02-.88-22.04-.18-33.06,.02-10.07,.19-20.13,.48-30.2,.68-6.63,.13-13.26,.25-19.89,.31-3.62,.03-4.03-.67-3.77-4.31,.48-6.69,.8-13.39,1.19-20.09,.44-7.65,.94-15.3,1.32-22.96,.33-6.78,.8-13.55,1.12-20.33,.21-4.31,.36-8.62,.81-12.91,.1-.93,.11-1.94,.89-2.67Z"/><path class="g" d="M451.69,122.93c1.61-.6,2.75-1.88,4.04-2.92,6.34-5.13,12.2-10.75,17.54-16.91,.46-.53,.84-1.16,1.8-1.54,.3,5.94-.38,11.77-.37,17.6,0,5.82-.2,11.64-.31,17.45,1.03,2.27,.43,4.67,.58,7-.22,12.39,.12,24.76,.79,37.14,.39,7.17,.78,14.35,1.15,21.53,.39,7.57,.71,15.15,1.22,22.72,.29,4.38,.48,8.77,.59,13.16,.06,2.5-.75,3.09-3.25,2.86-6.53-.6-13.09-.57-19.63-.78-11.26-.36-22.51-.88-33.77-1.13-8.3-.18-16.59-.93-24.9-.79-3.07,.05-4.84-1.16-6.3-3.73-6.22-11-12.61-21.9-18.91-32.86-5.82-10.12-11.72-20.2-17.48-30.36-1.81-3.2-1.41-3.94,2.16-5.05,17.75-5.49,35.03-12.22,52.08-19.58,11.25-4.86,22.18-10.33,32.5-16.97,1.55-1,3.02-2.11,4.56-3.1,2.12-1.01,3.67-2.94,5.92-3.75Z"/><path class="j" d="M451.69,122.93c-1.52,1.62-3.24,2.97-5.3,3.84-1.31,.6-2.33-.24-3.36-.76-17.26-8.79-35.37-15.21-54.22-19.56-12.32-2.84-24.79-4.64-37.42-5.51-9.83-.68-19.66-.62-29.47-.29-12.3,.42-24.5,2.1-36.56,4.66-3.67,.78-7.36,1.53-10.99,2.48-.93,.24-1.88,.44-2.8-.07-.83-1.84-1.2-3.81-1.57-5.77,12.29-3.27,24.75-5.55,37.39-6.97,12.9-1.45,25.84-1.78,38.78-1.2,20.51,.91,40.61,4.37,60.28,10.32,14.96,4.52,29.35,10.4,43.2,17.63,.7,.37,1.47,.63,2.05,1.22Z"/><path class="j" d="M474.34,144.09c-.1-2.49-.18-4.98,.06-7.47,6.05,3.91,11.73,8.32,17.33,12.83,6.48,5.22,12.63,10.81,18.52,16.69,13.23,13.21,24.87,27.7,34.85,43.51,10.85,17.17,19.48,35.4,25.85,54.69,1.38,4.17,2.76,8.34,3.73,12.63-1.82,.94-3.76,1.41-5.79,1.52-1.07-.67-1.2-1.84-1.49-2.9-4.07-14.51-9.57-28.48-16.36-41.9-8.95-17.66-19.79-34.09-32.82-49.07-12.37-14.22-26.04-27-41.26-38.11-.96-.7-2.03-1.3-2.6-2.43Z"/><path class="j" d="M109.43,236.1c1.55,1.86,2.86,3.86,3.45,6.25,.68,1.46-.21,2.64-.73,3.85-7.83,18.04-13.27,36.79-16.63,56.16-2.99,17.23-3.75,34.62-3.04,52.04,.66,16.31,3.2,32.41,7.22,48.25,.24,.95,.94,1.94,.05,2.93-1.89,.76-3.84,1.25-5.85,1.56-3.01-11.12-5.13-22.4-6.59-33.83-1.72-13.44-2.22-26.92-1.73-40.44,.57-15.6,2.62-31.03,6.13-46.25,3.86-16.72,9.36-32.87,16.57-48.44,.33-.72,.55-1.51,1.15-2.08Z"/><path class="j" d="M527.3,490.07c2.51,.04,5.03,.07,7.54,.11-2.64,4.12-5.81,7.83-8.92,11.58-5.67,6.84-11.68,13.37-18.08,19.54-17.09,16.47-36.06,30.35-57.05,41.46-15.46,8.18-31.6,14.64-48.42,19.44-.84,.24-1.71,.42-2.56,.63-.81-1.84-1.32-3.76-1.59-5.75,.66-1.09,1.84-1.2,2.89-1.5,32.06-9.22,60.97-24.42,86.82-45.51,6.32-5.15,12.36-10.63,18.1-16.38,6.75-6.77,13.2-13.88,19.04-21.49,.64-.83,1.26-1.66,2.23-2.12Z"/><path class="j" d="M133.83,205.89c-2.39-.18-4.78-.36-7.18-.54,4.15-6.65,8.89-12.87,13.78-18.97,7-8.74,14.58-16.95,22.72-24.64,16.05-15.16,33.76-28.03,53.2-38.52,6.96-3.76,14.09-7.16,21.38-10.23,.73-.31,1.5-.54,2.25-.81-.01,2.22,.27,4.46-.4,6.64-1.74,2.08-4.38,2.57-6.66,3.6-9.57,4.31-18.66,9.47-27.57,14.99-11.44,7.09-22.09,15.25-32.16,24.16-14.12,12.49-26.47,26.59-37.33,42-.6,.85-1.11,1.77-2.03,2.33Z"/><path class="j" d="M554.97,457.97c-1.56-1.87-2.55-4.11-3.9-6.12,.82-3.21,2.57-6.02,3.92-8.99,9.71-21.34,16.2-43.6,19.36-66.82,1.02-7.52,1.57-15.08,2.05-22.67,.64-10.01,.19-19.96-.52-29.92-.07-.99,.03-1.91,.54-2.77,1.73-1.54,3.61-2.84,5.7-3.83,.97,8.66,1.43,17.36,1.38,26.07-.2,34.78-7.04,68.18-21.13,100.04-1.91,4.31-3.89,8.59-6.05,12.78-.4,.77-.68,1.63-1.35,2.24Z"/><path class="j" d="M226.54,566.87c1.89-1.52,3.96-2.71,6.28-3.45,1.27-.53,2.34,.12,3.42,.6,22.89,10.19,46.82,16.58,71.7,19.33,9.6,1.06,19.26,1.68,28.92,1.49,6.93-.14,13.88-.41,20.78-1.25,1.36-.17,2.71-.26,3.99,.41,1.47,1.73,2.72,3.61,3.89,5.54-3.45,.69-6.97,.84-10.46,1.19-6.69,.67-13.41,.85-20.12,.82-7.91-.03-15.82-.3-23.71-1.07-10.51-1.03-20.92-2.62-31.22-4.9-17.63-3.9-34.6-9.72-50.96-17.35-.86-.4-1.8-.68-2.51-1.36Z"/><path class="j" d="M190.45,537.99c.02,2.58,.05,5.15,.07,7.73-6.09-4.14-11.83-8.73-17.43-13.49-10.32-8.77-19.86-18.33-28.62-28.65-9.91-11.67-18.66-24.16-26.28-37.44-4.46-7.77-8.5-15.75-12.05-23.99-.25-.58-.43-1.2-.65-1.8,2.26,.17,4.52,.33,6.78,.5,.84,.44,1.2,1.26,1.56,2.06,9.23,20.64,21.42,39.41,36.01,56.65,11.44,13.52,24.26,25.6,38.4,36.29,.82,.62,1.75,1.14,2.21,2.14Z"/><path class="i" d="M99.73,405.57c-3.15-11.82-5.36-23.81-6.76-35.97-1.5-13.06-1.83-26.16-1.21-39.25,1.19-24.9,6.15-49.06,14.83-72.45,1.95-5.24,4.26-10.34,6.27-15.55,1.05,.22,1.19,1.22,1.62,1.94,9.43,15.71,17.41,32.19,25.69,48.52,5.03,9.91,10.13,19.78,15.22,29.65,1.05,2.03,1.1,2.03,2.98,.93,18.48-10.83,36.96-21.66,55.44-32.49,5.86-3.43,11.73-6.85,17.6-10.28,8.08,4.88,16.16,9.74,24.23,14.63,25.15,15.28,50.28,30.58,75.43,45.86,.58,.35,1.12,.84,1.83,.89,.32-.4,.13-.82,.21-1.2,1.6-.35,1.39,.5,.97,1.48-.07,1.08,1.16,1.02,1.52,1.73,.2,.95-.45,1.14-1.15,1.29-.93-.59-.2-2.46-1.67-2.47-1.08,0-2.15,.54-3.23,.83-54.64,14.75-109.28,29.49-163.91,44.25-21.58,5.83-43.15,11.68-64.73,17.52-.38,.1-.79,.1-1.18,.15Z"/><path class="i" d="M334.45,345.29c.38-.43,.77-.86,1.15-1.29,4.58,2.28,8.87,5.06,13.28,7.63,10.61,6.2,21.19,12.46,31.77,18.71,11.07,6.53,22.12,13.09,33.19,19.61,10.52,6.2,21.06,12.37,31.59,18.55-.51,9.01-1.01,18.02-1.53,27.04-.47,8.37-.95,16.75-1.43,25.12-.48,8.53-.96,17.07-1.45,25.6-.06,1.12-.19,2.23-.32,3.34-.14,1.16,.37,1.54,1.5,1.52,4.4-.08,8.8,0,13.19-.17,8.55-.34,17.1-.28,25.65-.54,13.34-.41,26.68-.96,40.03-.72,2.08,.04,4.15,.13,6.22,.39-1.88,3.08-4.31,5.75-6.62,8.5-15.75,18.73-33.87,34.81-54.43,48.11-20.21,13.07-41.87,22.94-65.04,29.51-1,.28-1.99,.58-2.99,.88-1.6-4.43-2.63-9.03-3.88-13.56-9.69-35.08-19.34-70.18-29-105.27-9.93-36.09-19.86-72.19-29.77-108.29-.42-1.53-1.02-3.03-1.12-4.64Z"/><path class="k" d="M361.64,584.01c-10.74,1.12-21.51,1.8-32.31,1.5-16.24-.45-32.33-2.26-48.2-5.86-15.79-3.58-31.09-8.61-45.86-15.24-.8-.36-1.63-.65-2.44-.98,.36-.92,1.27-1.17,2-1.6,14.45-8.55,29.64-15.58,45.22-21.83,13.4-5.37,26.73-10.9,40.1-16.36,2.84,3.56,5.25,7.42,7.84,11.16,10.84,15.7,21.63,31.44,32.43,47.17,.45,.65,.82,1.37,1.22,2.05Z"/><path class="k" d="M190.45,537.99c-2.92-1.53-5.35-3.75-7.89-5.79-29.26-23.58-51.98-52.34-68.09-86.3-.79-1.66-1.47-3.36-2.19-5.04,11.54,.85,23.07,1.71,34.61,2.55,5.41,.39,10.83,.71,16.24,1.12,8.51,.64,17.02,1.33,25.54,2,.19,11.89,.32,23.79,.62,35.68,.09,3.43,.2,6.86,.26,10.29,.22,12.77,.42,25.55,.64,38.32,.04,2.39,.17,4.78,.25,7.18Z"/><path class="e" d="M334.09,342.28c-.01-.69,.03-1.43-.97-1.48-1.68-5.08-2.87-10.29-4.23-15.46-9.1-34.33-18.15-68.68-27.21-103.02-9.9-37.51-19.8-75.01-29.69-112.52-.18-.69-.28-1.4-.42-2.11,6.44-1.55,12.87-3.12,19.4-4.25,6.69-1.16,13.4-2.07,20.16-2.76,11.88-1.22,23.78-1.29,35.68-.8,12.86,.53,25.59,2.25,38.19,4.94,20.89,4.46,40.86,11.49,59.87,21.25,.5,.25,1.01,.47,1.52,.7-2.51,2.51-5.67,4.11-8.63,5.96-9.43,5.93-19.47,10.67-29.69,15.05-16.01,6.87-32.21,13.23-48.84,18.47-1.29,.41-2.6,.79-3.89,1.2-1.96,.62-1.98,.66-.99,2.39,2.34,4.09,4.7,8.17,7.06,12.26,9.9,17.17,19.81,34.33,29.71,51.5,.16,.28,.3,.56,.47,.84,2.08,3.43,1.16,2.95,5.17,3.08,7.35,.23,14.7,.36,22.05,.67,9.02,.38,18.05,.64,27.07,.97,9.02,.33,18.04,.73,27.07,.94,1.2,.03,2.39,.15,3.58,.27,1.11,.11,1.64-.27,1.55-1.46-.16-2.07-.28-4.14-.38-6.22-.39-8.46-.71-16.92-1.16-25.38-.52-9.65-1.27-19.29-1.69-28.94-.37-8.54-.7-17.09-.56-25.65,.05-2.88,.03-5.76,.04-8.63,3.43,1.91,6.42,4.46,9.51,6.84,10.33,7.97,19.87,16.83,28.75,26.39,12.72,13.69,23.71,28.67,32.98,44.9,8.27,14.47,14.96,29.64,20.09,45.5,1.15,3.57,2.15,7.19,3.22,10.78-2.25,1.3-4.83,1.59-7.26,2.27-14.83,4.12-29.69,8.15-44.54,12.21-13.23,3.62-26.47,7.23-39.71,10.84-14.93,4.07-29.86,8.15-44.79,12.21-12.16,3.31-24.32,6.61-36.49,9.89-15.71,4.24-31.42,8.48-47.14,12.7-4.39,1.18-8.79,2.31-13.2,3.45-.54,.14-1.1,.14-1.66,.21Z"/><path class="k" d="M576.42,320.68c.84,9.16,1.24,18.33,.95,27.52-.31,10.14-1.14,20.23-2.62,30.28-2.93,19.93-8.33,39.16-16.05,57.74-1.96,4.72-4.08,9.37-6.37,13.95-.31,.63-.51,1.37-1.26,1.68-13.15-23.18-21.48-48.25-28.82-73.7-1.7-5.9-3.22-11.86-4.82-17.79,2.75-2.32,5.85-4.15,8.82-6.15,16.01-10.81,32.07-21.55,48.12-32.31,.66-.44,1.37-.82,2.05-1.22Z"/><path class="k" d="M133.83,205.89c.32-1.47,1.39-2.5,2.21-3.65,9.17-12.95,19.48-24.92,30.99-35.83,15.56-14.75,32.74-27.3,51.6-37.52,6.82-3.69,13.77-7.1,20.94-10.06-.05,2.71-.03,5.43-.16,8.15-.19,4.07-.52,8.13-.73,12.2-.4,7.98-.72,15.97-1.15,23.95-.62,11.65-1.3,23.3-1.96,34.94-6.09,.79-12.19,1.58-18.28,2.36-5.62,.72-11.24,1.43-16.87,2.1-6.66,.79-13.31,1.62-19.98,2.28-6.75,.66-13.5,1.38-20.29,1.66-8.79,.36-17.56-.11-26.34-.58Z"/></g></g></svg>